<svg width="41" height="36" viewBox="0 0 41 36" fill="none" xmlns="http://www.w3.org/2000/svg">
<path id="Vector" fill-rule="evenodd" clip-rule="evenodd" d="M34.6899 14.5177V28.04C34.6948 28.4165 34.5891 28.786 34.3861 29.1026C34.1831 29.4192 33.8917 29.6688 33.5482 29.8203L21.8083 35.1759C21.5645 35.2916 21.2988 35.3533 21.0291 35.357C20.7594 35.3608 20.4921 35.3063 20.2452 35.1974L7.50139 29.8035C7.14575 29.6578 6.84201 29.4081 6.62963 29.0869C6.41724 28.7656 6.30605 28.3877 6.31049 28.0022V14.5177L19.5545 20.3126C19.8522 20.4453 20.1744 20.5139 20.5002 20.5139C20.826 20.5139 21.1482 20.4453 21.4459 20.3126L34.6899 14.5177ZM3.11123 20.9767V11.8054L20.0333 19.2103C20.18 19.2769 20.3392 19.3114 20.5002 19.3114C20.6612 19.3114 20.8204 19.2769 20.9671 19.2103L39.6092 11.0535C39.8175 10.9621 39.9948 10.8118 40.1192 10.6208C40.2437 10.4299 40.31 10.2067 40.31 9.97854C40.31 9.75038 40.2437 9.52717 40.1192 9.33625C39.9948 9.14532 39.8175 8.99497 39.6092 8.90359L20.9671 0.743869C20.8204 0.67723 20.6612 0.642761 20.5002 0.642761C20.3392 0.642761 20.18 0.67723 20.0333 0.743869L1.39118 8.9001C1.18288 8.99148 1.00564 9.14184 0.881181 9.33276C0.756719 9.52369 0.69043 9.74689 0.69043 9.97505C0.69043 10.2032 0.756719 10.4264 0.881181 10.6173C1.00564 10.8083 1.18288 10.9586 1.39118 11.05L1.91976 11.2824C1.91512 11.3469 1.91223 11.4108 1.91223 11.4759V20.9767C1.74351 21.08 1.60412 21.2251 1.50748 21.3981C1.41085 21.5711 1.36023 21.7662 1.36049 21.9645V26.1347C1.35705 26.2886 1.38429 26.4417 1.4406 26.5849C1.49691 26.7281 1.58116 26.8585 1.6884 26.9686C1.79564 27.0787 1.92372 27.1662 2.0651 27.2259C2.20649 27.2856 2.35834 27.3163 2.51173 27.3163C2.66512 27.3163 2.81697 27.2856 2.95836 27.2259C3.09974 27.1662 3.22782 27.0787 3.33506 26.9686C3.4423 26.8585 3.52655 26.7281 3.58286 26.5849C3.63917 26.4417 3.66641 26.2886 3.66297 26.1347V21.9616C3.66312 21.7633 3.61245 21.5683 3.51583 21.3953C3.41921 21.2223 3.27988 21.0771 3.11123 20.9738V20.9767ZM1.92207 11.2563C1.92786 11.186 1.93712 11.1162 1.9487 11.0477V11.0331V11.0279V11.0233L1.9516 11.0064V11.0029L1.95507 10.9878C1.96955 10.9175 1.98691 10.849 2.0066 10.781V10.738V10.7351V10.7304V10.7246C2.16926 10.2049 2.49267 9.75077 2.92989 9.42803C3.36712 9.1053 3.89543 8.93076 4.43818 8.92974H11.9054C12.0644 8.92974 12.2168 8.9931 12.3291 9.10588C12.4415 9.21866 12.5047 9.37163 12.5047 9.53113C12.5047 9.69063 12.4415 9.84359 12.3291 9.95637C12.2168 10.0692 12.0644 10.1325 11.9054 10.1325H4.4596C4.10227 10.1334 3.75984 10.2763 3.50717 10.5299C3.2545 10.7835 3.11215 11.1272 3.11123 11.4858V11.8135L1.91976 11.2906L1.92207 11.2563Z" fill="#AB47BC"/>
</svg>
