<svg width="100" height="100" viewBox="0 5 41 36" fill="none" xmlns="http://www.w3.org/2000/svg">
<path id="Vector" fill-rule="evenodd" clip-rule="evenodd" d="M34.6897 14.5178V28.04C34.6946 28.4165 34.5889 28.7861 34.3859 29.1027C34.1829 29.4193 33.8915 29.6689 33.548 29.8204L21.8082 35.1759C21.5643 35.2916 21.2986 35.3534 21.0289 35.3571C20.7592 35.3608 20.4919 35.3064 20.245 35.1974L7.50121 29.8035C7.14557 29.6578 6.84182 29.4081 6.62944 29.0869C6.41706 28.7657 6.30587 28.3878 6.31031 28.0023V14.5178L19.5543 20.3126C19.8521 20.4454 20.1742 20.5139 20.5 20.5139C20.8258 20.5139 21.148 20.4454 21.4457 20.3126L34.6897 14.5178ZM3.11105 20.9768V11.8054L20.0331 19.2104C20.1798 19.277 20.339 19.3115 20.5 19.3115C20.6611 19.3115 20.8202 19.277 20.9669 19.2104L39.6091 11.0535C39.8174 10.9622 39.9946 10.8118 40.119 10.6209C40.2435 10.43 40.3098 10.2068 40.3098 9.9786C40.3098 9.75044 40.2435 9.52724 40.119 9.33631C39.9946 9.14539 39.8174 8.99503 39.6091 8.90365L20.9669 0.74393C20.8202 0.677291 20.6611 0.642822 20.5 0.642822C20.339 0.642822 20.1798 0.677291 20.0331 0.74393L1.39099 8.90017C1.18269 8.99154 1.00546 9.1419 0.880998 9.33282C0.756536 9.52375 0.690247 9.74696 0.690247 9.97511C0.690247 10.2033 0.756536 10.4265 0.880998 10.6174C1.00546 10.8083 1.18269 10.9587 1.39099 11.0501L1.91957 11.2825C1.91494 11.347 1.91205 11.4109 1.91205 11.476V20.9768C1.74332 21.08 1.60393 21.2251 1.5073 21.3981C1.41067 21.5712 1.36004 21.7662 1.36031 21.9646V26.1348C1.35687 26.2887 1.38411 26.4417 1.44042 26.5849C1.49673 26.7281 1.58097 26.8586 1.68822 26.9687C1.79546 27.0788 1.92353 27.1662 2.06492 27.2259C2.20631 27.2856 2.35815 27.3164 2.51155 27.3164C2.66494 27.3164 2.81679 27.2856 2.95817 27.2259C3.09956 27.1662 3.22763 27.0788 3.33488 26.9687C3.44212 26.8586 3.52637 26.7281 3.58268 26.5849C3.63899 26.4417 3.66622 26.2887 3.66278 26.1348V21.9616C3.66294 21.7633 3.61227 21.5683 3.51565 21.3953C3.41902 21.2223 3.27969 21.0772 3.11105 20.9739V20.9768ZM1.92189 11.2563C1.92768 11.186 1.93694 11.1163 1.94852 11.0477V11.0332V11.028V11.0233L1.95142 11.0065V11.003L1.95489 10.9879C1.96936 10.9176 1.98673 10.849 2.00642 10.781V10.738V10.7351V10.7305V10.7247C2.16908 10.205 2.49248 9.75084 2.92971 9.4281C3.36694 9.10536 3.89525 8.93082 4.43799 8.9298H11.9053C12.0642 8.9298 12.2166 8.99316 12.329 9.10594C12.4413 9.21872 12.5045 9.37169 12.5045 9.53119C12.5045 9.69069 12.4413 9.84365 12.329 9.95643C12.2166 10.0692 12.0642 10.1326 11.9053 10.1326H4.45942C4.10209 10.1335 3.75966 10.2764 3.50699 10.53C3.25432 10.7835 3.11196 11.1272 3.11105 11.4858V11.8136L1.91957 11.2906L1.92189 11.2563Z" fill="#281E59"/>
</svg>
