<svg width="41" height="36" viewBox="0 0 41 36" fill="none" xmlns="http://www.w3.org/2000/svg">
<path id="Vector" fill-rule="evenodd" clip-rule="evenodd" d="M34.6899 14.5178V28.04C34.6948 28.4165 34.5891 28.7861 34.3861 29.1027C34.1831 29.4193 33.8917 29.6689 33.5482 29.8204L21.8083 35.1759C21.5645 35.2916 21.2988 35.3534 21.0291 35.3571C20.7594 35.3608 20.4921 35.3064 20.2452 35.1974L7.50139 29.8035C7.14575 29.6578 6.84201 29.4081 6.62963 29.0869C6.41724 28.7657 6.30605 28.3878 6.31049 28.0023V14.5178L19.5545 20.3126C19.8522 20.4454 20.1744 20.5139 20.5002 20.5139C20.826 20.5139 21.1482 20.4454 21.4459 20.3126L34.6899 14.5178ZM3.11123 20.9768V11.8054L20.0333 19.2104C20.18 19.277 20.3392 19.3115 20.5002 19.3115C20.6612 19.3115 20.8204 19.277 20.9671 19.2104L39.6092 11.0535C39.8175 10.9622 39.9948 10.8118 40.1192 10.6209C40.2437 10.43 40.31 10.2068 40.31 9.9786C40.31 9.75044 40.2437 9.52724 40.1192 9.33631C39.9948 9.14539 39.8175 8.99503 39.6092 8.90365L20.9671 0.74393C20.8204 0.677291 20.6612 0.642822 20.5002 0.642822C20.3392 0.642822 20.18 0.677291 20.0333 0.74393L1.39118 8.90017C1.18288 8.99154 1.00564 9.1419 0.881181 9.33282C0.756719 9.52375 0.69043 9.74696 0.69043 9.97511C0.69043 10.2033 0.756719 10.4265 0.881181 10.6174C1.00564 10.8083 1.18288 10.9587 1.39118 11.0501L1.91976 11.2825C1.91512 11.347 1.91223 11.4109 1.91223 11.476V20.9768C1.74351 21.08 1.60412 21.2251 1.50748 21.3981C1.41085 21.5712 1.36023 21.7662 1.36049 21.9646V26.1348C1.35705 26.2887 1.38429 26.4417 1.4406 26.5849C1.49691 26.7281 1.58116 26.8586 1.6884 26.9687C1.79564 27.0788 1.92372 27.1662 2.0651 27.2259C2.20649 27.2856 2.35834 27.3164 2.51173 27.3164C2.66512 27.3164 2.81697 27.2856 2.95836 27.2259C3.09974 27.1662 3.22782 27.0788 3.33506 26.9687C3.4423 26.8586 3.52655 26.7281 3.58286 26.5849C3.63917 26.4417 3.66641 26.2887 3.66297 26.1348V21.9616C3.66312 21.7633 3.61245 21.5683 3.51583 21.3953C3.41921 21.2223 3.27988 21.0772 3.11123 20.9739V20.9768ZM1.92207 11.2563C1.92786 11.186 1.93712 11.1163 1.9487 11.0477V11.0332V11.028V11.0233L1.9516 11.0065V11.003L1.95507 10.9879C1.96955 10.9176 1.98691 10.849 2.0066 10.781V10.738V10.7351V10.7305V10.7247C2.16926 10.205 2.49267 9.75084 2.92989 9.4281C3.36712 9.10536 3.89543 8.93082 4.43818 8.9298H11.9054C12.0644 8.9298 12.2168 8.99316 12.3291 9.10594C12.4415 9.21872 12.5047 9.37169 12.5047 9.53119C12.5047 9.69069 12.4415 9.84365 12.3291 9.95643C12.2168 10.0692 12.0644 10.1326 11.9054 10.1326H4.4596C4.10227 10.1335 3.75984 10.2764 3.50717 10.53C3.2545 10.7835 3.11215 11.1272 3.11123 11.4858V11.8136L1.91976 11.2906L1.92207 11.2563Z" fill="#252652"/>
</svg>
