<svg width="24" height="24" viewBox="0 0 24 24" fill="none" xmlns="http://www.w3.org/2000/svg">
<g id="logout-svgrepo-com 1">
<g id="SVGRepo_iconCarrier">
<g id="Group">
<g id="Sign_Out">
<path id="Vector" d="M12.3749 20.75H4.25V3.2502H12.3749C12.7199 3.2502 12.9999 2.97018 12.9999 2.62522C12.9999 2.28026 12.7199 2.00024 12.3749 2.00024H3.62498C3.28002 2.00024 3 2.28021 3 2.62522V21.375C3 21.72 3.28002 21.9999 3.62498 21.9999H12.3748C12.7199 21.9999 12.9998 21.7199 12.9998 21.375C12.9999 21.0299 12.7199 20.75 12.3749 20.75Z" fill="#332673" stroke="#332673" stroke-width="0.9"/>
<path id="Vector_2" d="M22.8186 11.5637L18.5061 7.18944C18.2618 6.94256 17.8662 6.94319 17.6224 7.18944C17.378 7.43569 17.378 7.83566 17.6224 8.08191L20.8724 11.3787H8.00193C7.65692 11.3787 7.37695 11.6613 7.37695 12.01C7.37695 12.3588 7.65697 12.6413 8.00193 12.6413H20.8724L17.6224 15.9381C17.378 16.185 17.378 16.5843 17.6224 16.8306C17.8668 17.0775 18.2624 17.0775 18.5061 16.8306L22.818 12.4563C23.0592 12.2131 23.0617 11.8063 22.8186 11.5637Z" fill="#332673" stroke="#332673" stroke-width="0.9"/>
</g>
</g>
</g>
</g>
</svg>
