<svg width="24" height="24" viewBox="0 0 24 24" fill="none" xmlns="http://www.w3.org/2000/svg">
<path d="M15.288 5.84804e-07C13.7615 -2.17406e-05 12.5309 -4.40128e-05 11.5632 0.130068C10.5585 0.265159 9.71242 0.55415 9.04053 1.22605C8.45456 1.81202 8.15848 2.5321 8.00306 3.37822C7.85204 4.20042 7.82315 5.20661 7.81642 6.41389C7.81385 6.87625 8.18659 7.25316 8.64895 7.25574C9.11132 7.25831 9.48823 6.88557 9.4908 6.42321C9.4976 5.20257 9.5293 4.33737 9.64991 3.68073C9.76613 3.04802 9.95278 2.68179 10.2245 2.41004C10.5335 2.1011 10.9672 1.89967 11.7863 1.78955C12.6295 1.67618 13.747 1.6744 15.3493 1.6744H16.4655C18.0678 1.6744 19.1853 1.67618 20.0286 1.78955C20.8477 1.89967 21.2813 2.1011 21.5903 2.41004C21.8993 2.71897 22.1007 3.15273 22.2109 3.97182C22.3242 4.81499 22.3259 5.93251 22.3259 7.53481V16.465C22.3259 18.0673 22.3242 19.1848 22.2109 20.028C22.1007 20.8471 21.8993 21.2808 21.5903 21.5898C21.2813 21.8987 20.8477 22.1001 20.0286 22.2103C19.1853 22.3236 18.0678 22.3254 16.4655 22.3254H15.3493C13.747 22.3254 12.6295 22.3236 11.7863 22.2103C10.9672 22.1001 10.5335 21.8987 10.2245 21.5898C9.95278 21.3179 9.76613 20.9518 9.64991 20.3191C9.5293 19.6624 9.4976 18.7972 9.4908 17.5765C9.48823 17.1142 9.11132 16.7415 8.64895 16.744C8.18659 16.7466 7.81385 17.1236 7.81642 17.5859C7.82315 18.7932 7.85204 19.7994 8.00306 20.6215C8.15848 21.4676 8.45456 22.1877 9.04053 22.7738C9.71242 23.4457 10.5585 23.7347 11.5632 23.8697C12.5309 23.9998 13.7615 23.9998 15.288 23.9998H16.5268C18.0534 23.9998 19.2839 23.9998 20.2517 23.8697C21.2565 23.7347 22.1024 23.4457 22.7744 22.7738C23.4462 22.1018 23.7352 21.2559 23.8703 20.2511C24.0005 19.2833 24.0004 18.0529 24.0004 16.5262V7.47356C24.0004 5.94697 24.0005 4.71648 23.8703 3.74871C23.7352 2.74395 23.4462 1.89796 22.7744 1.22605C22.1024 0.55415 21.2565 0.265159 20.2517 0.130068C19.2839 -4.40128e-05 18.0534 -2.17406e-05 16.5268 5.84804e-07H15.288Z" fill="#F3E5F5"/>
<path d="M15.3487 11.1628C15.8111 11.1628 16.1859 11.5376 16.1859 12C16.1859 12.4623 15.8111 12.8372 15.3487 12.8372H3.10037L5.28898 14.7132C5.64005 15.014 5.6807 15.5426 5.37979 15.8936C5.07889 16.2447 4.55036 16.2853 4.1993 15.9844L0.292362 12.6356C0.106793 12.4766 0 12.2443 0 12C0 11.7556 0.106793 11.5233 0.292362 11.3644L4.1993 8.01553C4.55036 7.71462 5.07889 7.75528 5.37979 8.10634C5.6807 8.4574 5.64005 8.98593 5.28898 9.28683L3.10037 11.1628H15.3487Z" fill="#F3E5F5"/>
</svg>
