<svg width="24" height="24" viewBox="0 0 24 24" fill="none" xmlns="http://www.w3.org/2000/svg">
<g id="SVGRepo_iconCarrier">
<path id="Vector" d="M8.1718 18.1111H3.83644C2.22973 18.1111 1.42638 18.1111 1.25735 17.9917C1.06746 17.8575 1.02106 17.7783 1.00049 17.5533C0.982196 17.353 1.47457 16.5816 2.45933 15.0392C3.47608 13.4465 4.33942 11.1276 4.33942 7.84444C4.33942 6.02919 5.14651 4.28828 6.58314 3.00469C8.01977 1.72111 9.96826 1 12 1C14.0317 1 15.9801 1.72111 17.4168 3.00469C18.8535 4.28828 19.6605 6.02919 19.6605 7.84444C19.6605 11.1276 20.5239 13.4465 21.5407 15.0392C22.5253 16.5816 23.0178 17.353 22.9995 17.5533C22.979 17.7783 22.9325 17.8575 22.7426 17.9917C22.5736 18.1111 21.7702 18.1111 20.1636 18.1111H15.8303M8.1718 18.1111L8.1697 19.3333C8.1697 21.3584 9.88464 23 12 23C14.1154 23 15.8303 21.3584 15.8303 19.3333V18.1111M8.1718 18.1111H15.8303" stroke="#F3E5F5" stroke-width="2" stroke-linecap="round" stroke-linejoin="round"/>
</g>
</svg>
