<svg width="20" height="24" viewBox="0 0 20 24" fill="none" xmlns="http://www.w3.org/2000/svg">
<path id="Vector" fill-rule="evenodd" clip-rule="evenodd" d="M11.1084 1.28465C11.1102 1.25669 11.1111 1.22846 11.1111 1.2C11.1111 0.537258 10.6136 0 10 0C9.38635 0 8.88889 0.537258 8.88889 1.2C8.88889 1.22846 8.88981 1.25669 8.89161 1.28465C5.12107 1.86566 2.22222 5.36722 2.22222 9.6V18H1.11111C0.497461 18 0 18.5373 0 19.2C0 19.8627 0.497461 20.4 1.11111 20.4H6.66667C6.66667 22.3882 8.15905 24 10 24C11.8409 24 13.3333 22.3882 13.3333 20.4H18.8889C19.5025 20.4 20 19.8627 20 19.2C20 18.5373 19.5025 18 18.8889 18H17.7778V9.6C17.7778 5.36722 14.8789 1.86566 11.1084 1.28465ZM15.5556 9.6V18H4.44444V9.6C4.44444 6.28629 6.93175 3.6 10 3.6C13.0682 3.6 15.5556 6.28629 15.5556 9.6ZM10 21.6C9.38635 21.6 8.88889 21.0627 8.88889 20.4H11.1111C11.1111 21.0627 10.6136 21.6 10 21.6Z" fill="#332673"/>
</svg>
